<?xml version="1.0" encoding="UTF-8"?>
<svg id="Livello_1" xmlns="http://www.w3.org/2000/svg" version="1.1" viewBox="0 0 600 120" width="600" height="120">
  <!-- Generator: Adobe Illustrator 29.8.2, SVG Export Plug-In . SVG Version: 2.1.1 Build 3)  -->
  <path d="M108.13,72.1c-5.02,18.78-24.32,29.94-43.1,24.92,0,0-10.93-2.83-20.39-5.26l3.66-13.42,19.29,5.15c11.83,3.16,23.99-3.87,27.15-15.7l8.78-32.85-33.41-8.93c-11.53-3.08-23.37,3.77-26.45,15.29l-8.93,33.41-3.63,13.64s-.01,0-.01,0c-9.25-1-15.88,5.11-15.88,5.11l14.82-55.48c5.17-19.35,25.05-30.85,44.4-25.68l27.31,7.3C91.21,8.87,76.56,2.2,60.34,2.2,28.33,2.2,2.38,28.15,2.38,60.16s25.95,57.96,57.96,57.96,57.96-25.95,57.96-57.96c0-5.85-.87-11.5-2.48-16.82l-7.68,28.76ZM56.31,47.51c1.5-5.6,7.28-8.95,12.88-7.45l17.43,4.66-4.77,17.85c-1.43,5.37-6.97,8.57-12.34,7.14l-17.85-4.77,4.66-17.43Z"/>
  <g>
    <path d="M377.54,85.91c0,3.99-3.2,7.27-7.19,7.27s-7.27-3.27-7.27-7.27,3.2-7.19,7.27-7.19,7.19,3.27,7.19,7.19Z"/>
    <g>
      <path d="M424.32,48.05c-5.43,0-9.35,2.24-12.7,6.71-1.68-4.31-5.27-6.71-9.98-6.71-5.19,0-9.11,2.16-12.3,6.39l-.96-5.03h-10.94v28.28c2.31,1.99,3.78,4.94,3.78,8.22,0,2.18-.64,4.2-1.73,5.91h10.57v-28.99c1.84-3.51,3.83-5.51,6.47-5.51,1.92,0,3.59,1.2,3.59,5.67v28.83h12.62v-28.99c1.84-3.51,3.75-5.51,6.47-5.51,1.92,0,3.51,1.2,3.51,5.67v28.83h12.62v-30.99c0-8.07-4.47-12.78-11.02-12.78Z"/>
      <path d="M187.46,54.52c0,12.86-9.11,18.85-21.88,18.85h-5.99v18.45l-13.1,1.46v-56.81h17.89c14.3,0,23.08,5.91,23.08,18.05ZM173.96,54.52c0-5.91-3.27-8.71-9.74-8.71h-4.63v18.13h4.87c5.91,0,9.51-2.48,9.51-9.42Z"/>
      <path d="M207.83,34.23c0,4.07-3.04,7.19-7.51,7.19s-7.43-3.11-7.43-7.19,3.11-7.19,7.43-7.19,7.51,3.12,7.51,7.19ZM206.71,91.82h-12.62v-42.41h12.62v42.41Z"/>
      <path d="M253.27,91.82h-14.3l-7.35-15.89-7.19,15.89h-13.74l13.66-22.28-12.3-20.13h14.14l5.91,13.58,5.67-13.58h13.42l-11.58,19.73,13.66,22.68Z"/>
      <path d="M294.16,91.82h-14.3l-7.35-15.89-7.19,15.89h-13.74l13.66-22.28-12.3-20.13h14.14l5.91,13.58,5.67-13.58h13.42l-11.58,19.73,13.66,22.68Z"/>
      <path d="M334.18,74.33h-26.2c.8,7.59,4.39,9.66,9.58,9.66,3.43,0,6.47-1.2,10.14-3.75l5.19,7.03c-4.23,3.35-9.66,5.91-16.53,5.91-14.14,0-21.33-9.11-21.33-22.36s6.95-22.76,19.81-22.76c12.14,0,19.57,7.99,19.57,21.73,0,1.36-.08,3.27-.24,4.55ZM322.04,66.18c-.08-5.75-1.84-9.74-6.87-9.74-4.23,0-6.63,2.64-7.27,10.3h14.14v-.56Z"/>
      <path d="M341.04,81.04v-48.48l12.62-1.36v49.36c0,1.76.72,2.64,2.24,2.64.8,0,1.52-.16,2.08-.4l2.4,8.95c-1.84.8-4.55,1.44-7.67,1.44-7.35,0-11.66-4.39-11.66-12.14Z"/>
      <path d="M481.43,74.33h-26.2c.8,7.59,4.39,9.66,9.58,9.66,3.43,0,6.47-1.2,10.14-3.75l5.19,7.03c-4.23,3.35-9.66,5.91-16.53,5.91-14.14,0-21.33-9.11-21.33-22.36s6.95-22.76,19.81-22.76c12.14,0,19.57,7.99,19.57,21.73,0,1.36-.08,3.27-.24,4.55ZM469.29,66.18c-.08-5.75-1.84-9.74-6.87-9.74-4.23,0-6.63,2.64-7.27,10.3h14.14v-.56Z"/>
      <path d="M526.55,32.55v59.27h-11.18l-.64-4.95c-2.48,3.51-6.31,6.31-12.06,6.31-10.78,0-16.13-8.95-16.13-22.68s6.87-22.44,17.33-22.44c4.15,0,7.59,1.52,10.06,3.99v-20.85l12.62,1.36ZM513.93,79.12v-18.29c-1.92-2.24-3.83-3.59-6.63-3.59-4.47,0-7.67,3.83-7.67,13.34,0,10.54,2.88,13.34,6.95,13.34,3.03,0,5.35-1.6,7.35-4.79Z"/>
      <path d="M550.03,34.23c0,4.07-3.04,7.19-7.51,7.19s-7.43-3.11-7.43-7.19,3.11-7.19,7.43-7.19,7.51,3.12,7.51,7.19ZM548.92,91.82h-12.62v-42.41h12.62v42.41Z"/>
      <path d="M595.16,84.71l-2.64,8.23c-4.95-.4-8.23-1.92-10.22-6.07-3.03,4.63-7.75,6.31-12.78,6.31-8.47,0-13.82-5.51-13.82-13.26,0-9.27,7.11-14.3,19.89-14.3h4.31v-1.84c0-5.03-2-6.55-7.19-6.55-2.72,0-6.87.8-11.1,2.24l-2.88-8.31c5.35-2,11.18-3.11,15.97-3.11,12.3,0,17.57,5.19,17.57,15.02v16.45c0,3.27.88,4.47,2.88,5.19ZM579.9,80.16v-7.59h-3.12c-5.75,0-8.47,2-8.47,6.23,0,3.35,1.76,5.35,4.87,5.35,2.88,0,5.19-1.52,6.71-3.99Z"/>
    </g>
  </g>
</svg>